# xmcd
#
# Track frame offsets:
#	182
#	13460
#	27022
#	40722
#	54320
#	67850
#	82352
#	95627
#	108262
#	119937
#	133847
#	145920
#	160230
#	174222
#	186700
#	199815
#	214415
#	225862
#	239807
#	255102
#	268320
#	281397
#	296257
#	308540
#
# Disc length: 4274 seconds
#
# Revision: 0
# Processed by: cddbd v1.4PL0 Copyright (c) Steve Scherf et al.
# Submitted via: dBpowerAMP V4.0
#
DISCID=6410b018
DTITLE=Blind Blake - The master of ragtime guitar
DYEAR=1900
DGENRE=Blues
TTITLE0=Police Dog Blues
TTITLE1=Diddie Wa Diddie
TTITLE2=Guitar Chimes
TTITLE3=Blind Arthur's Breakdown
TTITLE4=Sweet Jivin' Mama
TTITLE5=West Coast Blues
TTITLE6=Early Morning Blues
TTITLE7=Come On Boys Let's Do That Messin' Around
TTITLE8=Too Tight
TTITLE9=Skeedle Loo Doo Blues
TTITLE10=One Time Blues
TTITLE11=That Will Happen No More
TTITLE12=Sea Board Stomp
TTITLE13=He's In The Jailhouse Now
TTITLE14=Wabash Rag
TTITLE15=Hastings Street
TTITLE16=C. C. Pills
TTITLE17=Hot Potatoes
TTITLE18=Southbound Rag
TTITLE19=Panther Squall Blues
TTITLE20=Cold Hearted Mama Blues
TTITLE21=Sweet Papa Low Down
TTITLE22=Poker Woman Blues
TTITLE23=Doing A Stretch
EXTD=
EXTT0=
EXTT1=
EXTT2=
EXTT3=
EXTT4=
EXTT5=
EXTT6=
EXTT7=
EXTT8=
EXTT9=
EXTT10=
EXTT11=
EXTT12=
EXTT13=
EXTT14=
EXTT15=
EXTT16=
EXTT17=
EXTT18=
EXTT19=
EXTT20=
EXTT21=
EXTT22=
EXTT23=
PLAYORDER=
